<svg width="24" height="24" viewBox="0 0 24 24" fill="none" xmlns="http://www.w3.org/2000/svg">
<circle cx="12" cy="12" r="12" fill="#0B6AEA"/>
<path fill-rule="evenodd" clip-rule="evenodd" d="M12.0002 7.33301C12.2947 7.33301 12.5335 7.57179 12.5335 7.86634V11.4666H16.1335C16.428 11.4666 16.6668 11.7054 16.6668 11.9999C16.6668 12.2945 16.428 12.5333 16.1335 12.5333H12.5335V16.133C12.5335 16.4276 12.2947 16.6663 12.0002 16.6663C11.7056 16.6663 11.4668 16.4276 11.4668 16.133V12.5333H7.86683C7.57228 12.5333 7.3335 12.2945 7.3335 11.9999C7.3335 11.7054 7.57228 11.4666 7.86683 11.4666H11.4668V7.86634C11.4668 7.57179 11.7056 7.33301 12.0002 7.33301Z" fill="white"/>
</svg>
