<svg width="48" height="48" viewBox="0 0 48 48" fill="none" xmlns="http://www.w3.org/2000/svg">
<g id="Automotive Course Icon">
<path id="Vector" d="M44.952 38.9764V35.5436C44.952 34.4588 44.5159 33.4358 43.7352 32.6737C43.5031 32.4472 43.257 32.2618 42.9827 32.097L39.7263 25.2863C39.0652 23.8994 37.6304 23.0069 36.062 23.0069L22.952 23C21.3836 23 19.9488 23.8994 19.2877 25.2863L16.0384 32.1039C14.8497 32.8179 14.055 34.0949 14.055 35.5573V38.9833C13.4431 39.1961 13 39.766 13 40.4319V42.0179C13 42.6907 13.4431 43.2537 14.055 43.4666V44.1119C14.055 45.1555 14.9201 46 15.9891 46H19.555C20.624 46 21.4891 45.1555 21.4891 44.1119V43.5558H37.5108V44.1119C37.5108 45.1555 38.3759 46 39.4449 46H43.0108C44.0798 46 44.9449 45.1555 44.9449 44.1119V43.4666C45.5568 43.2537 45.9999 42.6839 45.9999 42.0179V40.4319C46.007 39.7591 45.5639 39.1893 44.952 38.9764ZM20.2161 31.486L22.4878 26.7281C22.5722 26.5496 22.7621 26.4328 22.9661 26.4328L36.069 26.4397C36.273 26.4397 36.4629 26.5564 36.5473 26.7349L38.819 31.486H20.2161ZM17.4661 31.5546L20.2442 25.7188C20.7295 24.6958 21.7986 24.0299 22.952 24.0299L36.062 24.0367C37.2154 24.0367 38.2845 24.6958 38.7698 25.7188L41.5549 31.5546C41.3017 31.5066 41.0485 31.486 40.7883 31.486H39.9724L37.4897 26.2955C37.2365 25.7531 36.6668 25.403 36.0549 25.403L22.952 25.3961C22.3331 25.3961 21.7704 25.7463 21.5172 26.2887L19.0415 31.4791H18.2187C18.1554 31.4791 18.0991 31.4928 18.0358 31.4928C17.8951 31.4997 17.7615 31.5134 17.6208 31.5272C17.5786 31.5478 17.5224 31.5409 17.4661 31.5546ZM18.2187 32.5227L30.6323 32.5158H40.7883C40.8446 32.5158 40.9008 32.5227 40.9571 32.5296C41.0626 32.5364 41.1681 32.5433 41.2736 32.557C41.351 32.5707 41.4283 32.5845 41.5057 32.5982C41.6252 32.6257 41.7448 32.66 41.8644 32.7081C41.9417 32.7355 42.0191 32.7698 42.0965 32.8042C42.42 32.9484 42.7224 33.1475 42.9827 33.4015C43.5664 33.9713 43.8899 34.7334 43.8899 35.5436V38.8734L27.7698 38.8803H15.11V35.5504C15.117 33.8821 16.5096 32.5227 18.2187 32.5227ZM20.4412 44.1119C20.4412 44.5857 20.0473 44.9701 19.562 44.9701H15.9962C15.5109 44.9701 15.117 44.5857 15.117 44.1119V43.5558H20.4412V44.1119ZM43.897 44.1119C43.897 44.5857 43.5031 44.9701 43.0178 44.9701H39.452C38.9667 44.9701 38.5728 44.5857 38.5728 44.1119V43.5558H43.897V44.1119ZM44.952 42.011C44.952 42.2925 44.7128 42.526 44.4245 42.526H38.0453H20.9687H14.5895C14.3011 42.526 14.062 42.2925 14.062 42.011V40.4251C14.062 40.1436 14.2941 39.917 14.5825 39.9102H14.5895L27.7135 39.9033H44.4245C44.7128 39.9033 44.952 40.1367 44.952 40.4182V42.011Z" fill="#00213D"/>
<path id="Vector_2" d="M19 38C20.1054 38 21 36.8818 21 35.5C21 34.1182 20.1054 33 19 33C17.8946 33 17 34.1182 17 35.5C16.9936 36.8818 17.8946 38 19 38ZM19 34.1981C19.5751 34.1981 20.0415 34.7812 20.0415 35.5C20.0415 36.2188 19.5751 36.8019 19 36.8019C18.4249 36.8019 17.9585 36.2188 17.9585 35.5C17.9521 34.7812 18.4249 34.1981 19 34.1981Z" fill="#00213D"/>
<path id="Vector_3" d="M40 38C41.1054 38 42 36.8818 42 35.5C42 34.1182 41.1054 33 40 33C38.8946 33 38 34.1182 38 35.5C37.9936 36.8818 38.8946 38 40 38ZM40 34.1981C40.5751 34.1981 41.0415 34.7812 41.0415 35.5C41.0415 36.2188 40.5751 36.8019 40 36.8019C39.4249 36.8019 38.9585 36.2188 38.9585 35.5C38.9521 34.7812 39.4249 34.1981 40 34.1981Z" fill="#00213D"/>
<path id="Vector_4" d="M19.0971 19.6583C20.4615 19.6583 21.5754 18.5745 21.5754 17.2469V16.0277L29.2955 10.0942L35.5607 13.9483L33.6394 16.1158C33.3609 16.4341 33.2217 16.8337 33.2565 17.2537C33.2913 17.6669 33.4863 18.0462 33.8134 18.3171L33.8274 18.3307L31.8991 20.5049C31.7111 20.7149 31.732 21.04 31.9548 21.2229C32.0522 21.3042 32.1775 21.3448 32.2959 21.3448C32.442 21.3448 32.5882 21.2839 32.6927 21.1687L34.621 18.9877L34.6349 19.0012C34.9273 19.2518 35.2962 19.3873 35.686 19.3873C35.7278 19.3873 35.7626 19.3873 35.8044 19.3805C36.229 19.3534 36.6189 19.157 36.8973 18.8454L39.4173 16.0209C40.8723 15.8448 42 14.6459 42 13.1829C42 11.7808 40.9558 10.609 39.5844 10.3651L33.0895 4.68904C32.5465 3.13116 31.0289 2 29.2468 2C27.4716 2 25.961 3.11761 25.4111 4.66872L21.3874 7.83867C21.0184 6.9649 20.1344 6.34175 19.0971 6.34175H12.4072C11.0428 6.34175 9.92899 7.42549 9.92899 8.75308C9.92899 9.51847 9.28855 10.1484 8.49495 10.1484H6.32301V5.65764C6.32301 4.25554 5.1535 3.11761 3.7125 3.11761H3.0442V2.508C3.0442 2.2303 2.80752 2 2.5221 2C2.23669 2 2 2.2303 2 2.508V3.62562V22.3744V23.492C2 23.7697 2.23669 24 2.5221 24C2.80752 24 3.0442 23.7697 3.0442 23.492V22.8824H3.7125C5.1535 22.8824 6.32301 21.7445 6.32301 20.3424V19.6583H19.0971ZM21.5754 14.734V8.99692L25.2022 6.14532C25.2022 6.15887 25.2092 6.17241 25.2092 6.18596C25.237 6.57882 25.3206 6.95135 25.4528 7.31035C25.4598 7.33744 25.4737 7.35776 25.4807 7.38485C25.5503 7.55419 25.6269 7.72352 25.7243 7.87931C25.7383 7.89963 25.7522 7.91995 25.7661 7.94704C25.8496 8.08929 25.9471 8.22475 26.0515 8.35345C26.0724 8.37377 26.0863 8.40086 26.1002 8.42118C26.2116 8.55665 26.33 8.67857 26.4553 8.80049C26.4901 8.83436 26.5249 8.86145 26.5597 8.89532C26.678 8.99692 26.7964 9.09175 26.9217 9.1798C26.9495 9.20012 26.9774 9.22044 27.0052 9.24076C27.1375 9.32882 27.2837 9.40333 27.4299 9.47783C27.4856 9.50493 27.5343 9.53202 27.59 9.55234C27.7431 9.62007 27.8963 9.68103 28.0564 9.72845C28.0703 9.73522 28.0842 9.742 28.0912 9.742L21.5754 14.734ZM36.1176 18.1884C36.0202 18.2968 35.8879 18.3645 35.7417 18.3713C35.5886 18.3781 35.4424 18.3374 35.331 18.2358L34.5026 17.545C34.3912 17.4501 34.3216 17.3147 34.3077 17.1724C34.2938 17.0302 34.3425 16.8879 34.44 16.7728L36.4379 14.5172C36.4588 14.5579 36.4936 14.5985 36.5214 14.6392C36.5701 14.7272 36.6258 14.8085 36.6885 14.883C36.7442 14.9507 36.7999 15.0185 36.8625 15.0862C36.9252 15.1539 36.9948 15.2217 37.0644 15.2894C37.134 15.3504 37.2036 15.4046 37.2732 15.4587C37.3498 15.5197 37.4333 15.5739 37.5169 15.6213C37.5935 15.6687 37.67 15.7026 37.7466 15.7432C37.8371 15.7906 37.9276 15.8245 38.0251 15.8651C38.0599 15.8787 38.0947 15.899 38.1295 15.9058L36.1176 18.1884ZM40.9558 13.1829C40.9558 14.1921 40.1204 15.0185 39.0832 15.0388C39.0693 15.0388 39.0553 15.0388 39.0414 15.0388C39.0205 15.0388 38.9997 15.032 38.9788 15.032C38.8883 15.032 38.7978 15.0185 38.7142 15.0049C38.6725 14.9982 38.6237 14.9846 38.582 14.9778C38.5124 14.9643 38.4497 14.944 38.3801 14.9169C38.3383 14.9033 38.3035 14.8898 38.2617 14.8762C38.1643 14.8356 38.0738 14.7882 37.9903 14.734C37.9694 14.7204 37.9485 14.7001 37.9206 14.6798C37.858 14.6324 37.7953 14.585 37.7327 14.5308C37.7048 14.5037 37.677 14.4766 37.6491 14.4427C37.6004 14.3885 37.5517 14.3344 37.5099 14.2802C37.489 14.2531 37.4612 14.2192 37.4403 14.1853C37.3777 14.0973 37.3289 14.0025 37.2872 13.9076C37.1897 13.6706 37.134 13.4267 37.134 13.1829C37.134 13.0474 37.1479 12.9187 37.1758 12.79C37.1827 12.7629 37.1897 12.7426 37.1967 12.7155C37.2245 12.6139 37.2523 12.5191 37.3011 12.4243C37.315 12.3972 37.3289 12.3768 37.3428 12.3498C37.3916 12.2617 37.4403 12.1736 37.496 12.0991C37.5169 12.072 37.5378 12.045 37.5587 12.0246C37.6143 11.9569 37.677 11.8892 37.7396 11.8282C37.7745 11.7943 37.8162 11.7672 37.851 11.7401C37.9067 11.6927 37.9694 11.6521 38.032 11.6115C38.0877 11.5776 38.1434 11.5505 38.1991 11.5234C38.2478 11.4963 38.3035 11.476 38.3592 11.4557C38.4288 11.4286 38.4984 11.4083 38.568 11.3947C38.6237 11.3812 38.6725 11.3676 38.7282 11.3608C38.7978 11.3473 38.8674 11.3473 38.937 11.3405C39.0205 11.3405 39.111 11.3405 39.2015 11.3473C40.19 11.4286 40.9558 12.2143 40.9558 13.1829ZM38.0181 10.5006C37.9485 10.5277 37.8789 10.5548 37.8093 10.5819C37.7118 10.6293 37.6143 10.6767 37.5238 10.7309C37.4682 10.7648 37.4125 10.7919 37.3637 10.8257C37.2315 10.9206 37.0992 11.0222 36.9809 11.1305C36.9461 11.1644 36.9182 11.1983 36.8834 11.2321C36.7999 11.3202 36.7163 11.415 36.6467 11.5099C36.6119 11.5573 36.5771 11.6115 36.5423 11.6589C36.4796 11.7537 36.424 11.8553 36.3752 11.9569C36.3474 12.0111 36.3265 12.0585 36.2986 12.1127C36.243 12.2482 36.2012 12.3836 36.1664 12.5259C36.1594 12.553 36.1455 12.58 36.1455 12.6071C36.1176 12.7562 36.0968 12.9119 36.0898 13.0677L30.5694 9.67426C30.6042 9.66071 30.6391 9.64039 30.6739 9.62685C30.7852 9.58621 30.8966 9.53879 31.008 9.48461C31.0567 9.46429 31.1055 9.44397 31.1472 9.41687C31.2934 9.34236 31.4257 9.26108 31.558 9.16626C31.5997 9.13916 31.6415 9.1053 31.6763 9.0782C31.7877 8.99692 31.8921 8.91564 31.9896 8.82081C32.0174 8.79372 32.0452 8.7734 32.0731 8.74631C32.1914 8.63116 32.3098 8.50924 32.4142 8.38054C32.4351 8.35345 32.456 8.32635 32.4769 8.29249C32.5674 8.17057 32.6579 8.04865 32.7344 7.91318C32.7483 7.89286 32.7623 7.87254 32.7692 7.85222C32.8597 7.7032 32.9363 7.54064 32.999 7.37808C33.0129 7.35099 33.0198 7.32389 33.0268 7.30357C33.0825 7.15456 33.1382 6.992 33.173 6.83621C33.18 6.81589 33.18 6.80234 33.1869 6.78202C33.2287 6.60591 33.2565 6.42303 33.2704 6.24015C33.2704 6.2266 33.2774 6.21983 33.2774 6.20628L38.1156 10.4329C38.0947 10.4667 38.0529 10.4871 38.0181 10.5006ZM29.2537 3.01601C30.6739 3.01601 31.8573 3.97783 32.1775 5.26478C32.1914 5.31897 32.2054 5.37315 32.2123 5.43411C32.2402 5.5899 32.2611 5.75246 32.2611 5.91502C32.2611 5.92857 32.2611 5.94212 32.2611 5.95567C32.2611 7.56096 30.9314 8.86823 29.2329 8.88855C28.2722 8.88177 27.4229 8.43473 26.873 7.74384C26.4762 7.24938 26.2325 6.63301 26.2325 5.95567C26.2325 5.94212 26.2325 5.92857 26.2325 5.91502C26.2325 5.75246 26.2534 5.5899 26.2812 5.43411C26.2882 5.37993 26.3021 5.32574 26.316 5.27155C26.6502 3.97783 27.8336 3.01601 29.2537 3.01601ZM8.49495 11.1644C9.85938 11.1644 10.9732 10.0807 10.9732 8.75308C10.9732 7.98769 11.6136 7.35776 12.4072 7.35776H19.1041C19.8907 7.35776 20.5381 7.98091 20.5381 8.75308V15.7839V17.2469C20.5381 18.0123 19.8977 18.6422 19.1041 18.6422H6.32301V11.1644H8.49495ZM5.2788 20.3424C5.2788 21.1823 4.57571 21.8664 3.7125 21.8664H3.0442V4.13362H3.7125C4.57571 4.13362 5.2788 4.81773 5.2788 5.65764V10.6564V19.1502V20.3424Z" fill="#00213D"/>
<path id="Vector_5" d="M29 8C30.1051 8 31 7.10506 31 6C31 4.89494 30.1051 4 29 4C27.8949 4 27 4.89494 27 6C27 7.10506 27.8949 8 29 8ZM29 5.16732C29.4591 5.16732 29.8327 5.54086 29.8327 6C29.8327 6.45914 29.4591 6.83268 29 6.83268C28.5409 6.83268 28.1673 6.45914 28.1673 6C28.1673 5.54086 28.5409 5.16732 29 5.16732Z" fill="#00213D"/>
<path id="Vector_6" d="M38.5 13C38.2438 13 38 13.2438 38 13.5C38 13.7563 38.2438 14 38.5 14C38.7563 14 39 13.7563 39 13.5C39 13.2438 38.7625 13 38.5 13Z" fill="#00213D"/>
</g>
</svg>
