<svg width="120" height="121" viewBox="0 0 120 121" fill="none" xmlns="http://www.w3.org/2000/svg">
<ellipse cx="59.994" cy="60.7527" rx="59.8797" ry="59.8816" fill="#2F80ED"/>
<mask id="mask0_2575_23850" style="mask-type:alpha" maskUnits="userSpaceOnUse" x="0" y="0" width="120" height="121">
<ellipse cx="59.9935" cy="60.7542" rx="59.8797" ry="59.8816" fill="url(#paint0_linear_2575_23850)"/>
</mask>
<g mask="url(#mask0_2575_23850)">
<path d="M64.4407 115.877L67.6421 132.685" stroke="white" stroke-width="1.68677" stroke-linecap="round"/>
<path fill-rule="evenodd" clip-rule="evenodd" d="M67.2661 100.4C70.6537 99.5791 77.7677 99.0866 79.1228 103.683C80.4778 108.28 78.5582 110.523 77.4289 111.071C83.9219 115.722 96.0608 128.636 92.6732 143.083H59.6439V103.683L67.2661 100.4ZM52.0179 100.4C48.6303 99.5791 41.5163 99.0866 40.1613 103.683C38.8062 108.28 40.7259 110.524 41.8551 111.071C35.3622 115.722 23.2232 128.637 26.6108 143.083H59.6401V103.683L52.0179 100.4Z" fill="#333333"/>
<path d="M64.4417 119.07L78.848 110.266L80.4487 113.468L64.4417 119.07Z" fill="#1D1D1D"/>
<mask id="mask1_2575_23850" style="mask-type:alpha" maskUnits="userSpaceOnUse" x="26" y="99" width="68" height="45">
<path fill-rule="evenodd" clip-rule="evenodd" d="M67.2649 100.401C70.6525 99.5801 77.7665 99.0876 79.1215 103.684C80.4765 108.281 78.5569 110.524 77.4277 111.072C83.9206 115.723 96.0596 128.637 92.672 143.084H59.6427V103.684L67.2649 100.401ZM52.016 100.401C48.6283 99.5801 41.5144 99.0876 40.1593 103.684C38.8043 108.281 40.7239 110.524 41.8531 111.072C35.3602 115.723 23.2213 128.637 26.6089 143.084H59.6382V103.684L52.016 100.401Z" fill="#333333"/>
</mask>
<g mask="url(#mask1_2575_23850)">
<path d="M54.8371 119.07L40.4308 110.266L38.8301 113.468L54.8371 119.07Z" fill="#1D1D1D"/>
</g>
<path d="M54.8381 116.681L51.6367 133.489" stroke="white" stroke-width="1.68677" stroke-linecap="round"/>
<path d="M56.3059 86.5764C60.764 89.118 65.1068 88.1933 68.0195 85.0163" stroke="#EB5757" stroke-width="1.68677" stroke-linecap="round"/>
<rect x="48.4409" y="79.0537" width="22.4098" height="33.6158" rx="11.2049" fill="#F5B1B1"/>
<path d="M82.0538 59.8485C82.0538 66.921 83.5107 73.4549 89.257 73.4549C95.0033 73.4549 100.462 65.3203 100.462 58.2477C100.462 51.1752 98.2047 47.0425 92.4584 47.0425C86.7121 47.0425 82.0538 52.7759 82.0538 59.8485Z" fill="#F5B1B1"/>
<path d="M37.2372 59.8485C37.2372 66.921 35.7803 73.4549 30.034 73.4549C24.2877 73.4549 18.8291 65.3203 18.8291 58.2477C18.8291 51.1752 21.0863 47.0425 26.8326 47.0425C32.5789 47.0425 37.2372 52.7759 37.2372 59.8485Z" fill="#F5B1B1"/>
<rect x="27.6284" y="19.8315" width="64.0281" height="78.4368" rx="32.014" fill="#FFD9CB"/>
<rect x="58.0454" y="71.0503" width="6.40281" height="11.2053" rx="3.20141" fill="#F5B1B1"/>
<ellipse cx="45.1425" cy="61.4503" rx="3.37349" ry="3.3736" fill="#00213D"/>
<ellipse cx="70.4438" cy="61.4503" rx="3.37349" ry="3.3736" fill="#00213D"/>
<path d="M63.7339 51.3945C66.2601 51.3945 73.165 51.3945 80.5751 51.3945" stroke="#00213D" stroke-width="1.68677" stroke-linecap="round"/>
<path d="M37.5405 45.7788C40.0667 45.7788 46.9716 45.7788 54.3817 45.7788" stroke="#00213D" stroke-width="1.68677" stroke-linecap="round"/>
<path fill-rule="evenodd" clip-rule="evenodd" d="M75.7865 14.5118C76.1209 14.4808 76.4597 14.4649 76.8023 14.4649C81.7751 14.4649 85.9665 17.811 87.2477 22.3747C87.3847 22.3652 87.5229 22.3604 87.6623 22.3604C90.9303 22.3604 93.5795 25.0097 93.5795 28.2777C93.5795 29.2024 93.3674 30.0775 92.9892 30.8571C94.5191 31.6943 95.5566 33.3189 95.5566 35.1859C95.5566 37.9093 93.3489 40.117 90.6256 40.117C89.3643 40.117 88.2136 39.6435 87.3416 38.8644C86.3399 39.6425 85.0816 40.1057 83.715 40.1057C81.1101 40.1057 78.8982 38.4224 78.108 36.0841C77.6799 36.1354 77.2442 36.1618 76.8023 36.1618C75.6758 36.1618 74.5894 35.9901 73.5679 35.6715C72.4525 40.4765 68.1446 44.0572 63.0004 44.0572C57.7575 44.0572 53.3833 40.3377 52.3723 35.3935C51.4209 35.888 50.3397 36.1674 49.1933 36.1674C48.658 36.1674 48.1369 36.1065 47.6365 35.9912C46.5675 38.4205 44.1393 40.1167 41.3149 40.1167C39.0879 40.1167 37.1072 39.0622 35.8449 37.4252C35.0291 39.023 33.3676 40.117 31.4505 40.117C28.7272 40.117 26.5195 37.9093 26.5195 35.1859C26.5195 34.3344 26.7353 33.5334 27.1152 32.8345C26.7336 32.0521 26.5195 31.173 26.5195 30.244C26.5195 30.03 26.5309 29.8188 26.553 29.6107C24.2011 28.5102 22.5718 26.1225 22.5718 23.3543C22.5718 19.5415 25.6625 16.4507 29.4751 16.4507C31.406 16.4507 33.1517 17.2434 34.4046 18.5212C35.1792 17.7311 36.1423 17.1265 37.2211 16.78C36.6838 15.7977 36.3784 14.6704 36.3784 13.4718C36.3784 9.65908 39.4691 6.56824 43.2817 6.56824C46.2438 6.56824 48.7701 8.43382 49.7499 11.0541C50.8159 10.7039 51.9549 10.5145 53.1381 10.5145C53.8498 10.5145 54.5455 10.583 55.219 10.7139C56.9786 7.09849 60.6877 4.60693 64.9788 4.60693C70.6522 4.60693 75.3084 8.9622 75.7865 14.5118Z" fill="#00213D"/>
</g>
<defs>
<linearGradient id="paint0_linear_2575_23850" x1="59.9935" y1="0.872559" x2="59.9935" y2="120.636" gradientUnits="userSpaceOnUse">
<stop stop-color="#FFC1C2"/>
<stop offset="1" stop-color="#E97C7C"/>
</linearGradient>
</defs>
</svg>
