<svg width="32" height="32" viewBox="0 0 32 32" fill="none" xmlns="http://www.w3.org/2000/svg">
<circle cx="16" cy="16" r="16" fill="#0B6AEA"/>
<path d="M14.1578 10H17.8418C17.8418 9.50272 17.6478 9.02581 17.3023 8.67417C16.9569 8.32254 16.4883 8.125 15.9998 8.125C15.5113 8.125 15.0427 8.32254 14.6973 8.67417C14.3518 9.02581 14.1578 9.50272 14.1578 10ZM13.0526 10C13.0526 9.20435 13.3631 8.44129 13.9158 7.87868C14.4685 7.31607 15.2181 7 15.9998 7C16.7815 7 17.5311 7.31607 18.0838 7.87868C18.6365 8.44129 18.947 9.20435 18.947 10H23.4474C23.594 10 23.7345 10.0593 23.8381 10.1648C23.9418 10.2702 24 10.4133 24 10.5625C24 10.7117 23.9418 10.8548 23.8381 10.9602C23.7345 11.0657 23.594 11.125 23.4474 11.125H22.5869L21.6902 22.0773C21.6249 22.874 21.2679 23.6167 20.69 24.1581C20.112 24.6994 19.3552 24.9999 18.5698 25H13.4298C12.6444 24.9999 11.8876 24.6994 11.3096 24.1581C10.7317 23.6167 10.3747 22.874 10.3094 22.0773L9.41272 11.125H8.55261C8.40605 11.125 8.26549 11.0657 8.16185 10.9602C8.05822 10.8548 8 10.7117 8 10.5625C8 10.4133 8.05822 10.2702 8.16185 10.1648C8.26549 10.0593 8.40605 10 8.55261 10H13.0526ZM11.411 21.9835C11.4531 22.4991 11.684 22.9797 12.058 23.33C12.4319 23.6804 12.9216 23.8749 13.4298 23.875H18.5698C19.078 23.8749 19.5677 23.6804 19.9416 23.33C20.3156 22.9797 20.5465 22.4991 20.5887 21.9835L21.4787 11.125H10.5216L11.411 21.9835ZM14.342 13.75C14.4885 13.75 14.6291 13.8093 14.7327 13.9148C14.8364 14.0202 14.8946 14.1633 14.8946 14.3125V20.6875C14.8946 20.8367 14.8364 20.9798 14.7327 21.0852C14.6291 21.1907 14.4885 21.25 14.342 21.25C14.1954 21.25 14.0549 21.1907 13.9512 21.0852C13.8476 20.9798 13.7894 20.8367 13.7894 20.6875V14.3125C13.7894 14.1633 13.8476 14.0202 13.9512 13.9148C14.0549 13.8093 14.1954 13.75 14.342 13.75ZM18.2102 14.3125C18.2102 14.1633 18.152 14.0202 18.0484 13.9148C17.9447 13.8093 17.8042 13.75 17.6576 13.75C17.5111 13.75 17.3705 13.8093 17.2669 13.9148C17.1632 14.0202 17.105 14.1633 17.105 14.3125V20.6875C17.105 20.8367 17.1632 20.9798 17.2669 21.0852C17.3705 21.1907 17.5111 21.25 17.6576 21.25C17.8042 21.25 17.9447 21.1907 18.0484 21.0852C18.152 20.9798 18.2102 20.8367 18.2102 20.6875V14.3125Z" fill="white"/>
</svg>
