<svg width="18" height="16" viewBox="0 0 18 16" fill="none" xmlns="http://www.w3.org/2000/svg">
<g id="Group">
<path id="Vector" d="M10.4371 15.4604L8.21798 12.403H7.67055C6.89925 12.403 6.17697 12.1889 5.55437 11.8147C4.28466 11.0532 3.43001 9.62986 3.43001 7.99901C3.43001 6.04951 4.6507 4.39741 6.34038 3.8173C6.58223 3.73396 6.83552 3.6735 7.09534 3.63591L7.51694 2.83029L8.39773 1.14225L8.93699 0.109488L8.99419 0H7.51694V0.00490215C3.35158 0.0915104 0 3.63591 0 7.99901C0 12.3621 3.35158 15.9081 7.51694 15.9931V15.998H10.8293L10.4387 15.4604H10.4371Z" fill="#0B6AEA"/>
<path id="Vector_2" d="M17.2086 7.30986C17.2691 6.95362 17.3034 6.58758 17.3034 6.21173C17.3034 6.20846 17.3034 6.20519 17.3034 6.20356C17.3034 5.37016 17.1433 4.57598 16.8557 3.85043C16.421 2.75067 15.6938 1.81105 14.7738 1.13452C14.2558 0.753774 13.6789 0.458001 13.058 0.263541C12.6919 0.149153 12.3112 0.070713 11.9174 0.0314941L11.4189 0.985819L11.2833 1.24564L10.0545 3.59877H11.3667C12.0415 3.60531 12.6527 3.88311 13.1021 4.33413C13.2688 4.50081 13.4126 4.692 13.5302 4.90116C13.7459 5.28518 13.8701 5.72803 13.8701 6.20356C13.8701 6.48626 13.826 6.75752 13.7443 7.01081C13.473 7.86709 12.7851 8.52727 11.9272 8.73644C11.7409 8.7822 11.5464 8.80834 11.347 8.80834H8.54944L10.2032 11.0863L10.816 11.9311L11.1591 12.4034L11.1689 12.4165L12.2916 13.964L13.7688 16.0001H17.2005L14.5908 12.405L14.2476 11.9328L14.094 11.722C14.1365 11.6991 14.1773 11.6762 14.2182 11.6533C15.7624 10.766 16.8867 9.18419 17.207 7.30986H17.2086Z" fill="#0B6AEA"/>
</g>
</svg>
