<svg width="24" height="24" viewBox="0 0 24 24" fill="none" xmlns="http://www.w3.org/2000/svg">
<circle cx="12" cy="12" r="12" fill="#0B6AEA"/>
<path d="M17.4223 6.57773C17.2391 6.39457 17.0216 6.24928 16.7822 6.15015C16.5428 6.05102 16.2862 6 16.0271 6C15.768 6 15.5114 6.05102 15.2721 6.15015C15.0327 6.24928 14.8152 6.39457 14.632 6.57773L7.21277 13.9946C6.99199 14.2153 6.83142 14.4892 6.74712 14.7901L5.97088 17.5614C5.95295 17.6256 5.95242 17.6935 5.96935 17.758C5.98629 17.8225 6.02008 17.8813 6.06726 17.9285C6.11443 17.9757 6.17331 18.0094 6.23784 18.0264C6.30238 18.0433 6.37025 18.0428 6.43452 18.0248L9.2063 17.2489C9.50733 17.1647 9.78158 17.0044 10.0026 16.7834L17.4223 9.36653C17.7922 8.99668 18 8.49511 18 7.97213C18 7.44915 17.7922 6.94758 17.4223 6.57773ZM15.1643 7.10941C15.3932 6.88067 15.7036 6.75219 16.0273 6.75223C16.351 6.75228 16.6613 6.88085 16.8902 7.10966C17.119 7.33847 17.2475 7.64877 17.2475 7.97231C17.2474 8.29584 17.1188 8.60611 16.8899 8.83485L16.1172 9.60679L14.3916 7.88134L15.1643 7.10941ZM13.8597 8.41352L15.5858 10.139L9.47023 16.2518C9.3407 16.3813 9.17999 16.4752 9.00359 16.5246L6.87558 17.12L7.47118 14.9933C7.52067 14.817 7.61467 14.6563 7.74414 14.5268L13.8597 8.41352Z" fill="white"/>
</svg>
